<svg id="f6b6b12a-7c09-4639-a9de-68e3a143ce60" data-name="Layer 1" xmlns="http://www.w3.org/2000/svg" width="738.21997" height="542.26204" viewBox="0 0 738.21997 542.26204"><path d="M376.80675,461.2862,367.08116,358.191l-29,1,22.95655,101.80713a12.007,12.007,0,1,0,15.769.28808Z" transform="translate(-230.89001 -178.86898)" fill="#ffb8b8"/><path id="f7ee344d-c721-41b2-a377-de565f5410e1" data-name="Path 2352" d="M928.128,691.07a106.36058,106.36058,0,0,1-4.968,29.4c-.069.221-.142.439-.214.659H904.403c.02-.2.04-.419.059-.659,1.236-14.213,8.364-100.716-.158-115.509C905.05,606.162,929.562,645.909,928.128,691.07Z" transform="translate(-230.89001 -178.86898)" fill="#f0f0f0"/><path id="e95f4eec-f23d-4bc8-9f90-d0ea8cbdbdc6" data-name="Path 2353" d="M925.152,719.752c-.324.462-.662.924-1.007,1.379H895.057c.221-.393.476-.855.772-1.379,4.806-8.674,19.029-34.6,32.233-61.487,14.189-28.889,27.206-58.873,26.11-69.726C954.509,590.987,964.324,665.601,925.152,719.752Z" transform="translate(-230.89001 -178.86898)" fill="#f0f0f0"/><path id="a531f0ec-400a-4c69-b5bf-39da4985ae22" data-name="Path 2354" d="M286.243,675.924a158.39368,158.39368,0,0,0,7.4,43.785c.1.329.211.653.319.982h27.612c-.029-.295-.059-.624-.088-.982-1.841-21.166-12.456-149.988.236-172.018C320.611,549.478,284.098,608.67,286.243,675.924Z" transform="translate(-230.89001 -178.86898)" fill="#f0f0f0"/><path id="a9bcace6-fad9-4541-acca-9a30071dc9cd" data-name="Path 2355" d="M288.315,719.709c.231.329.471.658.717.982h20.714c-.157-.28-.339-.609-.55-.982-3.422-6.176-13.551-24.642-22.953-43.785-10.1-20.572-19.374-41.924-18.593-49.652C267.409,628.014,260.417,681.148,288.315,719.709Z" transform="translate(-230.89001 -178.86898)" fill="#f0f0f0"/><path id="b92688db-222c-43f9-989b-78b2133af495" data-name="Path 2359" d="M886.477,613.053H598.21a5.345,5.345,0,0,1-5.338-5.338V536.207a5.345,5.345,0,0,1,5.338-5.338H886.477a5.345,5.345,0,0,1,5.338,5.338v71.507A5.345,5.345,0,0,1,886.477,613.053ZM598.21,533a3.207,3.207,0,0,0-3.2,3.2v71.507a3.207,3.207,0,0,0,3.2,3.2H886.477a3.206,3.206,0,0,0,3.2-3.2V536.207a3.206,3.206,0,0,0-3.2-3.2Z" transform="translate(-230.89001 -178.86898)" fill="#3f3d56"/><circle id="e23a082b-59ea-4370-a2bf-a5963966135d" data-name="Ellipse 472" cx="340.10999" cy="498.745" r="21.745" fill="#e6e6e6"/><path id="bcc3ef45-bb76-4f30-a6cc-1264055d609b" data-name="Path 2357" d="M621.222,663.86795a3.624,3.624,0,0,0,0,7.248H792.078a3.624,3.624,0,1,0,.01434-7.248H621.222Z" transform="translate(-230.89001 -178.86898)" fill="#e6e6e6"/><path id="ae74e2d0-780f-4101-a8bb-870415511404" data-name="Path 2358" d="M621.222,685.614a3.624,3.624,0,0,0-.01434,7.248H694.742a3.624,3.624,0,0,0,0-7.248Z" transform="translate(-230.89001 -178.86898)" fill="#e6e6e6"/><circle id="f82d6d4c-feb4-446b-880c-2fa26ca46909" data-name="Ellipse 473" cx="412.10999" cy="392.745" r="21.745" fill="#e6e6e6"/><path id="b6f9bdee-a2b7-452b-bc14-d94c013f43e0" data-name="Path 2360" d="M693.222,557.86795a3.624,3.624,0,0,0,0,7.248H864.078a3.624,3.624,0,0,0,0-7.248Z" transform="translate(-230.89001 -178.86898)" fill="#e6e6e6"/><path id="efc82199-78d0-43eb-8e79-193b1f093ce3" data-name="Path 2361" d="M693.222,579.614a3.624,3.624,0,0,0,0,7.248h73.52a3.624,3.624,0,0,0,0-7.248Z" transform="translate(-230.89001 -178.86898)" fill="#e6e6e6"/><path id="fda9c462-401d-4966-a467-cfe070c908b5" data-name="Path 2362" d="M830.477,436.053H542.21a5.345,5.345,0,0,1-5.338-5.338V184.207a5.345,5.345,0,0,1,5.338-5.338H830.477a5.345,5.345,0,0,1,5.338,5.338V430.714a5.344,5.344,0,0,1-5.338,5.338ZM542.21,181a3.207,3.207,0,0,0-3.2,3.2V430.714a3.207,3.207,0,0,0,3.2,3.2H830.477a3.206,3.206,0,0,0,3.2-3.2V184.207a3.207,3.207,0,0,0-3.2-3.2Z" transform="translate(-230.89001 -178.86898)" fill="#3f3d56"/><circle id="bc3761a9-70ff-46e7-b3bf-5a5c9461b7fa" data-name="Ellipse 474" cx="356.10999" cy="213.34799" r="21.745" fill="#7dbcdf"/><path id="bc6e8bd5-7df3-475c-b000-36116dee4ec1" data-name="Path 2363" d="M637.222,377.72a3.624,3.624,0,0,0,0,7.248H808.078a3.624,3.624,0,0,0,0-7.248Z" transform="translate(-230.89001 -178.86898)" fill="#ccc"/><path id="b91c7e48-83e8-4244-9203-384671b062c3" data-name="Path 2364" d="M637.222,399.466a3.624,3.624,0,0,0,0,7.248h73.52a3.624,3.624,0,0,0,0-7.248Z" transform="translate(-230.89001 -178.86898)" fill="#ccc"/><path id="aad2262a-f5a0-4e5a-abbd-bd87f38657ea" data-name="Path 2366" d="M464.08,700.191h-22l-13-183-.5,46.5-48,128-19-15,31.5-127.5-15-71h98Z" transform="translate(-230.89001 -178.86898)" fill="#2f2e41"/><circle id="b9ae59d5-4fd9-4551-9a26-a465ff678437" data-name="Ellipse 475" cx="198.19" cy="47.322" r="26" fill="#ffb8b8"/><path id="b7f9d65f-dc38-4579-bfd6-0fa3a2d5616e" data-name="Path 2370" d="M479.081,492.191c-42.478-10.9-82.334-18.245-107-5,4.32-45.411-.677-103.379-15.5-163.965-4.814-19.679-1.549-37.411,16-47.535l23.5-13.5,36,1,18.783,10.392a47.16,47.16,0,0,1,25.254,50.977C466.025,377.667,471.479,434.985,479.081,492.191Z" transform="translate(-230.89001 -178.86898)" fill="#3f3d56"/><path id="ecfb9d5d-a098-48d7-b0f6-abfa0a6b571c" data-name="Path 2372" d="M382.081,365.191l-47-3c3.672-46.236,14.122-71.511,30-80l17,20Z" transform="translate(-230.89001 -178.86898)" fill="#3f3d56"/><path id="a47e1c27-653b-4dc4-a0d0-018a19bcbdef" data-name="Path 2375" d="M898.966,350.074H610.698a5.344,5.344,0,0,1-5.338-5.338V218.229a5.344,5.344,0,0,1,5.338-5.338H898.966a5.344,5.344,0,0,1,5.338,5.338V344.736A5.344,5.344,0,0,1,898.966,350.074Z" transform="translate(-230.89001 -178.86898)" fill="#7dbcdf"/><path id="aeece7c6-04d0-49b1-9357-312333fb4d53" data-name="Path 2376" d="M669.404,256.985a3.624,3.624,0,0,0,0,7.248H840.261a3.624,3.624,0,0,0,0-7.248Z" transform="translate(-230.89001 -178.86898)" fill="#fff"/><path id="f24aa851-1b64-4b7a-9f17-ca339b1b3f3b" data-name="Path 2377" d="M669.404,277.985a3.624,3.624,0,0,0,0,7.248H840.261a3.624,3.624,0,0,0,0-7.248Z" transform="translate(-230.89001 -178.86898)" fill="#fff"/><path id="bb1556c1-87f6-463f-9c2d-077abca756f8" data-name="Path 2378" d="M669.404,298.731a3.624,3.624,0,0,0,0,7.248h73.52a3.624,3.624,0,0,0,0-7.248Z" transform="translate(-230.89001 -178.86898)" fill="#fff"/><path id="ab7bc8d7-159c-40f9-9738-192a2ff4ed33" data-name="Path 1784" d="M437.945,191.978c-2.422-.254-4.706,1.035-7.089,1.562-4.9,1.074-9.92-1.152-14.958-1.133a27.76793,27.76793,0,0,0-12.3,3.671,29.7002,29.7002,0,0,0-8.2,5.741,13.37808,13.37808,0,0,0-3.912,9.023,14.78452,14.78452,0,0,1-.176,5.858,16.486,16.486,0,0,1-1.8,2.734,8.123,8.123,0,0,0-.84,6.776,22.47814,22.47814,0,0,0,4.042,6.054c3.242,4.159,5.273,9.139,8.182,13.553a42.184,42.184,0,0,0,4.257,5.409,3.00843,3.00843,0,0,0,.918.722,2.81683,2.81683,0,0,0,1.074.156c6.171.176,12.557.312,18.239-2.109a8.33805,8.33805,0,0,0,4.374-3.515,12.40016,12.40016,0,0,0,.429-7.03,32.21834,32.21834,0,0,1,.176-7.811,3.437,3.437,0,0,1,1-2.324,3.124,3.124,0,0,1,3.124-.1,8.51586,8.51586,0,0,0,3.105.937c2.129,0,3.476-2.422,3.906-4.531a10.623,10.623,0,0,1,4.355-9.94,15.037,15.037,0,0,0,2.675-13.338C447.123,197.954,442.827,192.466,437.945,191.978Z" transform="translate(-230.89001 -178.86898)" fill="#2f2e41"/><path id="b46b25a3-75ce-4809-89fd-f42dd44a7572" data-name="Path 2356" d="M814.477,719.053H526.21a5.345,5.345,0,0,1-5.338-5.338V642.207a5.344,5.344,0,0,1,5.338-5.338H814.477a5.345,5.345,0,0,1,5.338,5.338v71.507a5.345,5.345,0,0,1-5.338,5.338ZM526.21,639a3.207,3.207,0,0,0-3.2,3.2v71.507a3.207,3.207,0,0,0,3.2,3.2H814.477a3.206,3.206,0,0,0,3.2-3.2V642.207a3.207,3.207,0,0,0-3.2-3.2Z" transform="translate(-230.89001 -178.86898)" fill="#3f3d56"/><path d="M487.80675,457.2862,478.08116,354.191l-29,1,22.95655,101.80713a12.007,12.007,0,1,0,15.769.28808Z" transform="translate(-230.89001 -178.86898)" fill="#ffb8b8"/><path id="b13445f9-4f09-4d22-a91b-eba98e584a77" data-name="Path 2374" d="M488.08,356.191l-44,10-2-72,25,1Z" transform="translate(-230.89001 -178.86898)" fill="#3f3d56"/><path d="M441.38386,698.38982l31.91439-.00129h.00129a20.33944,20.33944,0,0,1,20.33835,20.338v.66091l-52.25306.00194Z" transform="translate(-230.89001 -178.86898)" fill="#2f2e41"/><path d="M361.22777,673.121,388.057,690.40452l.00109.0007a20.33945,20.33945,0,0,1,6.08236,28.11207l-.358.55559-43.92715-28.2982Z" transform="translate(-230.89001 -178.86898)" fill="#2f2e41"/><rect id="ad202503-1625-4fb3-876f-d9035230c508" data-name="Rectangle 256" y="540.26202" width="738.21997" height="2" fill="#cacaca"/></svg>